<svg xmlns="http://www.w3.org/2000/svg" width="1400" height="260" viewBox="0 0 1400 260" role="img" aria-label="Delivery process from discovery to iteration">
  <defs><linearGradient id="accent" x1="0" y1="0" x2="1" y2="0"><stop offset="0" stop-color="#ff6a00"/><stop offset="1" stop-color="#ff8a34"/></linearGradient></defs>
  <rect width="1400" height="260" rx="22" fill="#0b0b0b"/>
  <text x="54" y="62" fill="#f3efe8" font-family="'Segoe UI','Helvetica Neue',Arial,sans-serif" font-size="19" font-weight="700" letter-spacing="4">HOW I WORK</text>
  <rect x="54" y="79" width="70" height="4" rx="2" fill="url(#accent)"/>
  <g font-family="'Segoe UI','Helvetica Neue',Arial,sans-serif">
    <g fill="#f3efe8" font-size="18" font-weight="700" text-anchor="middle">
      <text x="145" y="158">Understand</text><text x="365" y="158">Scope</text><text x="585" y="158">Build</text><text x="805" y="158">Validate</text><text x="1025" y="158">Harden</text><text x="1245" y="158">Iterate</text>
    </g>
    <g fill="#8f8a84" font-size="14" text-anchor="middle">
      <text x="145" y="182">the operation</text><text x="365" y="182">the reliable core</text><text x="585" y="182">a working version</text><text x="805" y="182">with real usage</text><text x="1025" y="182">failure paths</text><text x="1245" y="182">with evidence</text>
    </g>
    <g>
      <circle cx="145" cy="118" r="24" fill="#16171a" stroke="#ff6a00"/><text x="145" y="126" text-anchor="middle" fill="#ff7a1f" font-size="20" font-weight="800">01</text>
      <circle cx="365" cy="118" r="24" fill="#16171a" stroke="#ff6a00"/><text x="365" y="126" text-anchor="middle" fill="#ff7a1f" font-size="20" font-weight="800">02</text>
      <circle cx="585" cy="118" r="24" fill="#16171a" stroke="#ff6a00"/><text x="585" y="126" text-anchor="middle" fill="#ff7a1f" font-size="20" font-weight="800">03</text>
      <circle cx="805" cy="118" r="24" fill="#16171a" stroke="#ff6a00"/><text x="805" y="126" text-anchor="middle" fill="#ff7a1f" font-size="20" font-weight="800">04</text>
      <circle cx="1025" cy="118" r="24" fill="#16171a" stroke="#ff6a00"/><text x="1025" y="126" text-anchor="middle" fill="#ff7a1f" font-size="20" font-weight="800">05</text>
      <circle cx="1245" cy="118" r="24" fill="#16171a" stroke="#ff6a00"/><text x="1245" y="126" text-anchor="middle" fill="#ff7a1f" font-size="20" font-weight="800">06</text>
      <path d="M170 118H340 M390 118H560 M610 118H780 M830 118H1000 M1050 118H1220" stroke="#ff6a00" stroke-width="2" stroke-opacity="0.7" stroke-dasharray="8 8"/>
    </g>
  </g>
</svg>